<?xml version="1.0" encoding="UTF-8"?>
<svg version="1.1" xmlns="http://www.w3.org/2000/svg" width="151" height="146">
<path d="M0 0 C10.09894509 9.08242108 11.21650511 23.15812922 13.03515625 35.79296875 C13.03515625 29.19296875 13.03515625 22.59296875 13.03515625 15.79296875 C11.71515625 15.13296875 10.39515625 14.47296875 9.03515625 13.79296875 C10.02515625 11.15296875 11.01515625 8.51296875 12.03515625 5.79296875 C17.60403033 5.86207853 23.17217022 5.95015799 28.74047852 6.05541992 C30.63264792 6.08856482 32.52491371 6.11662892 34.41723633 6.1394043 C37.14576079 6.17314296 39.87341025 6.2254674 42.6015625 6.28125 C43.85979576 6.29083488 43.85979576 6.29083488 45.14344788 6.3006134 C51.86269164 6.46680302 56.63821484 7.71561952 61.84765625 12.23046875 C65.72842473 16.77651183 66.46800515 20.10628903 66.36328125 25.98828125 C65.65458507 32.04594624 63.40475836 37.73856558 60.03515625 42.79296875 C60.25836022 45.69462035 60.68661636 47.35030445 62.49609375 49.6484375 C66.33978981 55.00424749 66.87609876 62.68266713 67.90234375 69.0859375 C70.02605342 83.85143612 70.02605342 83.85143612 77.03515625 96.79296875 C79.87645821 99.09949046 79.87645821 99.09949046 83.22265625 98.73046875 C87.30403017 97.72685221 89.92392884 96.21784748 93.3359375 93.8515625 C95.03515625 92.79296875 95.03515625 92.79296875 97.03515625 92.79296875 C96.74511935 100.62396499 94.00793465 107.06689393 88.2109375 112.50390625 C82.10047196 116.79238714 75.57768727 117.39339774 68.34765625 116.16796875 C61.49531173 113.32359933 57.14706081 109.64050215 53.91015625 102.85546875 C53.5752417 102.17452148 53.24032715 101.49357422 52.89526367 100.79199219 C49.77104695 94.00866752 48.25282728 86.97952281 46.76611328 79.69262695 C45.1464928 71.81966428 42.63440284 64.99146193 39.03515625 57.79296875 C36.07340502 58.40574487 34.65456842 59.04669397 32.03515625 60.79296875 C31.5779699 62.83143439 31.5779699 62.83143439 31.64697266 65.2109375 C31.63278793 66.58245972 31.63278793 66.58245972 31.61831665 67.98168945 C31.62438934 68.97128662 31.63046204 69.96088379 31.63671875 70.98046875 C31.63384857 71.99391357 31.63097839 73.0073584 31.62802124 74.05151367 C31.62597738 76.19678302 31.63152964 78.34207086 31.64404297 80.48730469 C31.66009166 83.77971891 31.6442047 87.07090542 31.625 90.36328125 C31.62698237 92.44401314 31.63082593 94.52474426 31.63671875 96.60546875 C31.63064606 97.59506592 31.62457336 98.58466309 31.61831665 99.60424805 C31.62777313 100.51859619 31.63722961 101.43294434 31.64697266 102.375 C31.65055283 103.58506714 31.65055283 103.58506714 31.65420532 104.81958008 C31.77991913 105.47079834 31.90563293 106.1220166 32.03515625 106.79296875 C33.52015625 107.78296875 33.52015625 107.78296875 35.03515625 108.79296875 C35.03515625 110.44296875 35.03515625 112.09296875 35.03515625 113.79296875 C27.11515625 113.79296875 19.19515625 113.79296875 11.03515625 113.79296875 C10.70515625 112.14296875 10.37515625 110.49296875 10.03515625 108.79296875 C11.02515625 108.46296875 12.01515625 108.13296875 13.03515625 107.79296875 C13.06403439 104.31381934 13.08191312 100.83470044 13.09765625 97.35546875 C13.11022461 95.86563477 13.11022461 95.86563477 13.12304688 94.34570312 C13.12626953 93.40146484 13.12949219 92.45722656 13.1328125 91.484375 C13.13804932 90.60982666 13.14328613 89.73527832 13.14868164 88.83422852 C13.26300434 86.79856669 13.26300434 86.79856669 12.03515625 85.79296875 C11.56207031 86.62957031 11.08898438 87.46617188 10.6015625 88.328125 C6.22279165 96.04534429 1.74391721 103.69341527 -2.85546875 111.28125 C-4.19304367 113.49186369 -5.48635961 115.71242388 -6.76171875 117.9609375 C-7.2825 118.87488281 -7.80328125 119.78882813 -8.33984375 120.73046875 C-8.78070313 121.52324219 -9.2215625 122.31601563 -9.67578125 123.1328125 C-10.10117187 123.68066406 -10.5265625 124.22851562 -10.96484375 124.79296875 C-11.95484375 124.79296875 -12.94484375 124.79296875 -13.96484375 124.79296875 C-13.83432617 124.12692627 -13.70380859 123.46088379 -13.56933594 122.7746582 C-9.01832754 99.36406378 -4.62420071 76.07759456 -4.52734375 52.16796875 C-4.51727295 50.89405273 -4.50720215 49.62013672 -4.49682617 48.30761719 C-4.58529439 38.85343924 -5.63468272 28.88691698 -10.96484375 20.79296875 C-14.13769784 18.05277658 -16.18579973 16.90838268 -20.33984375 16.29296875 C-24.19790209 16.82511473 -26.72429557 17.91901164 -30.0703125 19.8203125 C-32.02270889 20.82267683 -33.82396674 21.34200796 -35.96484375 21.79296875 C-36.29484375 20.80296875 -36.62484375 19.81296875 -36.96484375 18.79296875 C-36.24039063 18.07109375 -35.5159375 17.34921875 -34.76953125 16.60546875 C-33.01411709 14.84516486 -31.26776825 13.07572064 -29.53515625 11.29296875 C-11.54943997 -7.094984 -11.54943997 -7.094984 0 0 Z M-15.96484375 4.79296875 C-15.11921875 4.56609375 -14.27359375 4.33921875 -13.40234375 4.10546875 C-9.0120881 3.7063546 -6.81471593 4.69303847 -2.96484375 6.79296875 C-0.02734375 9.48046875 -0.02734375 9.48046875 2.03515625 11.79296875 C1.15585882 8.27577904 0.32341133 6.10593141 -2.15234375 3.41796875 C-7.20558416 0.49831873 -11.71598661 0.7140659 -15.96484375 4.79296875 Z M2.03515625 11.79296875 C3.03515625 13.79296875 3.03515625 13.79296875 3.03515625 13.79296875 Z M4.03515625 14.79296875 C5.03515625 16.79296875 5.03515625 16.79296875 5.03515625 16.79296875 Z M-4.96484375 17.79296875 C-3.96484375 19.79296875 -3.96484375 19.79296875 -3.96484375 19.79296875 Z M5.03515625 17.79296875 C6.03515625 19.79296875 6.03515625 19.79296875 6.03515625 19.79296875 Z M52.03515625 17.79296875 C50.58934045 19.01474936 50.58934045 19.01474936 50.84765625 22.66796875 C49.35666501 36.34619273 37.72388909 47.10626318 27.59765625 55.41796875 C26.25380859 56.47371094 26.25380859 56.47371094 24.8828125 57.55078125 C22.8119453 59.18134061 20.78852997 60.82988796 18.78125 62.53515625 C18.23976318 62.9945459 17.69827637 63.45393555 17.14038086 63.92724609 C15.614827 65.22518499 14.0905803 66.52465982 12.56640625 67.82421875 C10.03515625 69.79296875 10.03515625 69.79296875 7.03515625 70.79296875 C7.06222656 69.53484375 7.08929688 68.27671875 7.1171875 66.98046875 C7.11397812 61.51169354 6.47365093 56.2031195 5.72265625 50.79296875 C5.54573242 49.39304687 5.54573242 49.39304687 5.36523438 47.96484375 C4.54762158 41.96063081 3.17449871 36.46288251 1.03515625 30.79296875 C-1.46122667 34.53754313 -0.96121611 36.95945424 -0.58984375 41.23046875 C0.14024892 51.48012941 0.12606498 61.71121604 0.09765625 71.98046875 C0.09570251 72.80811737 0.09374878 73.63576599 0.09173584 74.48849487 C0.07957221 79.25669573 0.06035174 84.02481968 0.03515625 88.79296875 C3.05252569 85.85675105 5.79580522 82.94142248 8.2890625 79.55078125 C12.13986202 74.51984761 16.46226914 70.10603741 20.97265625 65.66796875 C21.73255859 64.90871094 22.49246094 64.14945313 23.27539062 63.3671875 C28.03628287 58.64288623 32.95215171 54.16604862 38.03515625 49.79296875 C40.53244096 47.56049185 43.01727808 45.31505392 45.5 43.06640625 C47.18560562 41.55481539 48.88621685 40.05978716 50.6015625 38.58203125 C51.40464844 37.88851562 52.20773438 37.195 53.03515625 36.48046875 C53.75703125 35.86558594 54.47890625 35.25070313 55.22265625 34.6171875 C57.64308623 32.18110818 58.97696338 30.23670612 59.1171875 26.7578125 C58.5784726 22.53106244 58.5784726 22.53106244 56.66015625 18.79296875 C54.92733412 17.53092004 54.92733412 17.53092004 52.03515625 17.79296875 Z M-3.96484375 19.79296875 C-2.96484375 21.79296875 -2.96484375 21.79296875 -2.96484375 21.79296875 Z M6.03515625 21.79296875 C7.03515625 23.79296875 7.03515625 23.79296875 7.03515625 23.79296875 Z M27.03515625 22.79296875 C27.03515625 30.05296875 27.03515625 37.31296875 27.03515625 44.79296875 C27.36515625 44.79296875 27.69515625 44.79296875 28.03515625 44.79296875 C28.03515625 37.53296875 28.03515625 30.27296875 28.03515625 22.79296875 C27.70515625 22.79296875 27.37515625 22.79296875 27.03515625 22.79296875 Z M31.03515625 22.79296875 C31.03515625 28.73296875 31.03515625 34.67296875 31.03515625 40.79296875 C34.88841584 39.50854889 35.83767754 37.79244794 38.22265625 34.54296875 C38.93808594 33.5890625 39.65351562 32.63515625 40.390625 31.65234375 C42.1156809 28.65295915 42.49764576 27.18055422 42.03515625 23.79296875 C41.00108952 22.53347826 41.00108952 22.53347826 38.75 22.6953125 C36.17838542 22.72786458 33.60677083 22.76041667 31.03515625 22.79296875 Z M-1.96484375 25.79296875 C-0.96484375 27.79296875 -0.96484375 27.79296875 -0.96484375 27.79296875 Z M-0.96484375 27.79296875 C0.03515625 30.79296875 0.03515625 30.79296875 0.03515625 30.79296875 Z M61.03515625 55.79296875 C62.03515625 57.79296875 62.03515625 57.79296875 62.03515625 57.79296875 Z M62.03515625 58.79296875 C63.03515625 61.79296875 63.03515625 61.79296875 63.03515625 61.79296875 Z M63.03515625 62.79296875 C64.03515625 66.79296875 64.03515625 66.79296875 64.03515625 66.79296875 Z M27.03515625 64.79296875 C27.03515625 67.76296875 27.03515625 70.73296875 27.03515625 73.79296875 C27.36515625 73.79296875 27.69515625 73.79296875 28.03515625 73.79296875 C28.03515625 70.82296875 28.03515625 67.85296875 28.03515625 64.79296875 C27.70515625 64.79296875 27.37515625 64.79296875 27.03515625 64.79296875 Z M64.03515625 69.79296875 C65.03515625 73.79296875 65.03515625 73.79296875 65.03515625 73.79296875 Z M65.03515625 75.79296875 C65.03515625 77.44296875 65.03515625 79.09296875 65.03515625 80.79296875 C65.36515625 80.79296875 65.69515625 80.79296875 66.03515625 80.79296875 C66.03515625 79.14296875 66.03515625 77.49296875 66.03515625 75.79296875 C65.70515625 75.79296875 65.37515625 75.79296875 65.03515625 75.79296875 Z M66.03515625 81.79296875 C67.03515625 85.79296875 67.03515625 85.79296875 67.03515625 85.79296875 Z M67.03515625 85.79296875 C68.03515625 88.79296875 68.03515625 88.79296875 68.03515625 88.79296875 Z M27.03515625 88.79296875 C27.03515625 90.44296875 27.03515625 92.09296875 27.03515625 93.79296875 C27.36515625 93.79296875 27.69515625 93.79296875 28.03515625 93.79296875 C28.03515625 92.14296875 28.03515625 90.49296875 28.03515625 88.79296875 C27.70515625 88.79296875 27.37515625 88.79296875 27.03515625 88.79296875 Z M27.03515625 97.79296875 C27.03515625 100.76296875 27.03515625 103.73296875 27.03515625 106.79296875 C27.36515625 106.79296875 27.69515625 106.79296875 28.03515625 106.79296875 C28.03515625 103.82296875 28.03515625 100.85296875 28.03515625 97.79296875 C27.70515625 97.79296875 27.37515625 97.79296875 27.03515625 97.79296875 Z M78.03515625 102.79296875 C78.03515625 103.12296875 78.03515625 103.45296875 78.03515625 103.79296875 C80.01515625 103.79296875 81.99515625 103.79296875 84.03515625 103.79296875 C84.03515625 103.46296875 84.03515625 103.13296875 84.03515625 102.79296875 C82.05515625 102.79296875 80.07515625 102.79296875 78.03515625 102.79296875 Z " fill="#D3B46E" transform="translate(42.96484375,13.20703125)"/>
<path d="M0 0 C0.00879936 0.89535965 0.00879936 0.89535965 0.01777649 1.80880737 C0.08156917 8.00550498 0.16595112 14.20167639 0.26245117 20.39794922 C0.2957645 22.7123319 0.32377622 25.02679708 0.34643555 27.34130859 C0.37986377 30.66279356 0.4321735 33.98351802 0.48828125 37.3046875 C0.49467117 38.34430634 0.5010611 39.38392517 0.50764465 40.45504761 C0.53733589 41.89631516 0.53733589 41.89631516 0.56762695 43.36669922 C0.57873001 44.21497284 0.58983307 45.06324646 0.60127258 45.93722534 C0.73285263 46.61794098 0.86443268 47.29865662 1 48 C1.99 48.66 2.98 49.32 4 50 C4 51.65 4 53.3 4 55 C-3.92 55 -11.84 55 -20 55 C-20.33 53.35 -20.66 51.7 -21 50 C-19.515 49.505 -19.515 49.505 -18 49 C-17.67 42.07 -17.34 35.14 -17 28 C-16.67 28 -16.34 28 -16 28 C-15.67 34.6 -15.34 41.2 -15 48 C-16.32 48.66 -17.64 49.32 -19 50 C-19 51.32 -19 52.64 -19 54 C-8.605 53.505 -8.605 53.505 2 53 C0.68 51.68 -0.64 50.36 -2 49 C-2.33 49.99 -2.66 50.98 -3 52 C-3.95376567 48.79217914 -4.11621181 45.91812604 -4.09765625 42.578125 C-4.09443359 41.55332031 -4.09121094 40.52851562 -4.08789062 39.47265625 C-4.07951172 38.40917969 -4.07113281 37.34570312 -4.0625 36.25 C-4.05798828 35.17105469 -4.05347656 34.09210938 -4.04882812 32.98046875 C-4.03705727 30.32025617 -4.02061399 27.66015635 -4 25 C-4.33 25 -4.66 25 -5 25 C-5 22.33333333 -5 19.66666667 -5 17 C-5.64533078 14.66067594 -6.31060191 12.32671854 -7 10 C-7.99 10.495 -7.99 10.495 -9 11 C-9.66 10.67 -10.32 10.34 -11 10 C-11.33 10.66 -11.66 11.32 -12 12 C-14.0625 12.625 -14.0625 12.625 -16 13 C-5.04494382 0 -5.04494382 0 0 0 Z " fill="#C9AE6C" transform="translate(74,72)"/>
<path d="M0 0 C3.50904018 2.19315011 5.37129179 4.45646713 7 8.25 C8.12343827 15.5784752 6.49918307 22.7592314 3 29.25 C1.67144078 30.25633403 0.33858139 31.25703593 -1 32.25 C-1.81314911 35.85465748 -1.81314911 35.85465748 -2 39.25 C-4.31 38.59 -6.62 37.93 -9 37.25 C-8.360625 36.940625 -7.72125 36.63125 -7.0625 36.3125 C-5.06389179 35.4154837 -5.06389179 35.4154837 -4 34.25 C-5.65 34.25 -7.3 34.25 -9 34.25 C-7.19705769 33.04803846 -5.38674011 31.85688468 -3.5625 30.6875 C-0.01008551 27.30837402 1.8369793 24.02118733 3 19.25 C3.02929463 15.18292836 2.62506087 11.26533668 2 7.25 C-0.6739124 6.35869587 -3.23723823 5.77268466 -6 5.25 C-5.67 3.6 -5.34 1.95 -5 0.25 C-2 -0.75 -2 -0.75 0 0 Z " fill="#C8AF72" transform="translate(102,23.75)"/>
<path d="M0 0 C2.32386975 3.48580463 2.67373772 5.94155283 3.375 10.0625 C4.47893075 16.30075699 5.70028203 22.5002831 7.0625 28.6875 C7.22476074 29.4410376 7.38702148 30.1945752 7.55419922 30.97094727 C8.40631949 34.80808376 9.40416797 38.40405848 11 42 C9.68 42 8.36 42 7 42 C6.80664062 41.43410156 6.61328125 40.86820313 6.4140625 40.28515625 C6.15367188 39.55167969 5.89328125 38.81820312 5.625 38.0625 C5.24214844 36.96615234 5.24214844 36.96615234 4.8515625 35.84765625 C4.14728587 33.81317884 4.14728587 33.81317884 2 33 C1.27113266 30.2303041 1 27.87137415 1 25 C0.67132852 23.70161182 0.31501111 22.41003781 -0.0625 21.125 C-0.95127374 17.75636107 -1.05994893 15.39183656 0 12 C-0.66 11.67 -1.32 11.34 -2 11 C-2 9.68 -2 8.36 -2 7 C-2.66 6.67 -3.32 6.34 -4 6 C-4 4.35 -4 2.7 -4 1 C-3.01 1.33 -2.02 1.66 -1 2 C-0.67 1.34 -0.34 0.68 0 0 Z M-2 4 C-1 6 -1 6 -1 6 Z M-1 7 C0 10 0 10 0 10 Z M1 18 C2 22 2 22 2 22 Z " fill="#CCB477" transform="translate(106,65)"/>
<path d="M0 0 C1.98 1.65 3.96 3.3 6 5 C5.67 6.32 5.34 7.64 5 9 C4.67 8.67 4.34 8.34 4 8 C3.46890625 8.94101563 2.9378125 9.88203125 2.390625 10.8515625 C1.67720096 12.10944172 0.96365265 13.36725047 0.25 14.625 C-0.09804688 15.24246094 -0.44609375 15.85992187 -0.8046875 16.49609375 C-3.05118351 20.44826266 -5.43567314 24.24591788 -8 28 C-9.25640898 25.48718205 -9.20872719 23.78302919 -9 21 C-8.34 20.34 -7.68 19.68 -7 19 C-6.01 19 -5.02 19 -4 19 C-4.495 17.39125 -4.495 17.39125 -5 15.75 C-6 12 -6 12 -6 8 C-4.6875 5.859375 -4.6875 5.859375 -3 3.75 C-2.443125 3.04359375 -1.88625 2.3371875 -1.3125 1.609375 C-0.6628125 0.81273438 -0.6628125 0.81273438 0 0 Z " fill="#D0B474" transform="translate(51,91)"/>
<path d="M0 0 C0.33 0 0.66 0 1 0 C1.33 6.6 1.66 13.2 2 20 C0.02 20.99 0.02 20.99 -2 22 C-2 23.32 -2 24.64 -2 26 C8.395 25.505 8.395 25.505 19 25 C17.68 23.68 16.36 22.36 15 21 C14.67 21.99 14.34 22.98 14 24 C12.46833832 19.91556885 13.36918348 16.20544343 14 12 C14.33 12.66 14.66 13.32 15 14 C15.66 14 16.32 14 17 14 C17.28875 15.134375 17.5775 16.26875 17.875 17.4375 C18.24625 18.613125 18.6175 19.78875 19 21 C19.66 21.33 20.32 21.66 21 22 C21 23.65 21 25.3 21 27 C13.08 27 5.16 27 -3 27 C-3.33 25.35 -3.66 23.7 -4 22 C-3.01 21.67 -2.02 21.34 -1 21 C-0.67 14.07 -0.34 7.14 0 0 Z " fill="#C3B180" transform="translate(57,100)"/>
<path d="M0 0 C-0.2900369 7.83099624 -3.0272216 14.27392518 -8.82421875 19.7109375 C-13.81010293 23.21015845 -18.96102667 24.21532806 -25 24 C-27.49731355 23.54594299 -29.60671906 22.88447339 -32 22 C-32 21.67 -32 21.34 -32 21 C-30.90300781 21.04640625 -29.80601563 21.0928125 -28.67578125 21.140625 C-27.2213815 21.1781579 -25.76695217 21.21455643 -24.3125 21.25 C-23.59126953 21.28351563 -22.87003906 21.31703125 -22.12695312 21.3515625 C-17.05668201 21.44417019 -14.81395033 20.59459511 -11 17 C-10.34 17 -9.68 17 -9 17 C-8.67 15.68 -8.34 14.36 -8 13 C-7.01 13 -6.02 13 -5 13 C-5.020625 12.05125 -5.04125 11.1025 -5.0625 10.125 C-5 7 -5 7 -4 5 C-4.99 4.67 -5.98 4.34 -7 4 C-2.25 0 -2.25 0 0 0 Z " fill="#CBB57E" transform="translate(140,106)"/>
<path d="M0 0 C2.6635969 0.35994553 4.58183452 0.71161002 6.8125 2.25 C8.39364795 4.58011277 8.22337696 6.24501755 8 9 C6.02 9.66 4.04 10.32 2 11 C2 12.65 2 14.3 2 16 C1.01 16 0.02 16 -1 16 C-1.33 15.01 -1.66 14.02 -2 13 C-2.66 13 -3.32 13 -4 13 C-3.37215066 10.07003641 -2.71202908 7.48244217 -1 5 C1.625 4.25 1.625 4.25 4 4 C3.04134491 1.66924071 3.04134491 1.66924071 0 0 Z " fill="#D2B366" transform="translate(35,18)"/>
<path d="M0 0 C0.33 0 0.66 0 1 0 C1 5.94 1 11.88 1 18 C0.34 18.33 -0.32 18.66 -1 19 C-1.46954261 22.04581269 -1.46954261 22.04581269 -1.625 25.5625 C-1.69976562 26.76003906 -1.77453125 27.95757812 -1.8515625 29.19140625 C-1.90054688 30.11824219 -1.94953125 31.04507813 -2 32 C-2.33 32 -2.66 32 -3 32 C-3 22.1 -3 12.2 -3 2 C-2.01 2.33 -1.02 2.66 0 3 C0 2.01 0 1.02 0 0 Z " fill="#C9B27B" transform="translate(42,49)"/>
<path d="M0 0 C0.66 0 1.32 0 2 0 C2.33 5.94 2.66 11.88 3 18 C5.97 15.525 5.97 15.525 9 13 C8.42655063 15.86724686 8.1385485 16.8614515 6 19 C4.66666667 19.33333333 3.33333333 19.66666667 2 20 C1.34 20.66 0.68 21.32 0 22 C0 14.74 0 7.48 0 0 Z " fill="#CAB47D" transform="translate(71,36)"/>
<path d="M0 0 C0 0.66 0 1.32 0 2 C0.66 2 1.32 2 2 2 C1.67 2.66 1.34 3.32 1 4 C0.92818179 6.71760108 0.90700494 9.40859388 0.9375 12.125 C0.94201172 12.87910156 0.94652344 13.63320313 0.95117188 14.41015625 C0.96296501 16.27347127 0.98090058 18.13674555 1 20 C-1.49505962 17.50494038 -1.35948376 16.32671112 -1.625 12.875 C-1.69976562 11.96492188 -1.77453125 11.05484375 -1.8515625 10.1171875 C-1.90054688 9.41851562 -1.94953125 8.71984375 -2 8 C-4.475 7.01 -4.475 7.01 -7 6 C-6.75 4.125 -6.75 4.125 -6 2 C-3.85331506 0.61504198 -2.56128588 0 0 0 Z " fill="#C8A861" transform="translate(53,47)"/>
<path d="M0 0 C0 4.38968456 -2.12805101 5.76905739 -5 9 C-3.35 9.33 -1.7 9.66 0 10 C-2.88423694 12.2432954 -5.72636167 14.36318083 -9 16 C-11.3125 15.6875 -11.3125 15.6875 -13 15 C-13 13 -13 13 -11 10.875 C-10.00065963 9.91597883 -9.00054398 8.95776538 -8 8 C-6.55984043 6.5651645 -5.12244899 5.1275465 -3.6875 3.6875 C-2.45833333 2.45833333 -1.22916667 1.22916667 0 0 Z " fill="#CCB77D" transform="translate(19,19)"/>
<path d="M0 0 C1.29229206 4.19071855 0.5239382 6.88536687 -1 11 C-1.99 11.66 -2.98 12.32 -4 13 C-4.73606499 16.56769552 -4.73606499 16.56769552 -5 20 C-7.31 19.34 -9.62 18.68 -12 18 C-11.0409375 17.5359375 -11.0409375 17.5359375 -10.0625 17.0625 C-8.06389179 16.1654837 -8.06389179 16.1654837 -7 15 C-8.65 15 -10.3 15 -12 15 C-10.19705769 13.79803846 -8.38674011 12.60688468 -6.5625 11.4375 C-3.08741432 8.1319307 -1.69260947 4.42537001 0 0 Z " fill="#CDAD64" transform="translate(105,43)"/>
<path d="M0 0 C1.32 0.33 2.64 0.66 4 1 C4 1.66 4 2.32 4 3 C4.66 3 5.32 3 6 3 C4.55049545 6.7910119 2.84827434 10.3874638 1 14 C-0.32 13.67 -1.64 13.34 -3 13 C-3 11.02 -3 9.04 -3 7 C-2.34 6.67 -1.68 6.34 -1 6 C-1 6.99 -1 7.98 -1 9 C2.24849977 7.27773504 2.24849977 7.27773504 3 4 C2.01 4 1.02 4 0 4 C0 2.68 0 1.36 0 0 Z " fill="#D5B676" transform="translate(36,116)"/>
<path d="M0 0 C0.845625 0.845625 1.69125 1.69125 2.5625 2.5625 C5.37084662 4.93058325 5.8017362 5.00660879 9.75 4.875 C12.85813064 4.15398016 12.85813064 4.15398016 15 3 C15.33 3.99 15.66 4.98 16 6 C12.75 7.625 12.75 7.625 9 9 C6.875 8.125 6.875 8.125 5 7 C2.31006947 7.30378052 2.31006947 7.30378052 0 8 C-1.125 6.25 -1.125 6.25 -2 4 C-1.125 1.75 -1.125 1.75 0 0 Z " fill="#CBB679" transform="translate(117,107)"/>
<path d="M0 0 C0.625 1.8125 0.625 1.8125 1 4 C0.01 5.485 0.01 5.485 -1 7 C-1.38499891 8.65549531 -1.72793135 10.3222433 -2 12 C-2.99 12.33 -3.98 12.66 -5 13 C-5.08086147 11.20906809 -5.13912702 9.41710372 -5.1875 7.625 C-5.22230469 6.62726563 -5.25710937 5.62953125 -5.29296875 4.6015625 C-5.14794922 3.31378906 -5.14794922 3.31378906 -5 2 C-2 0 -2 0 0 0 Z " fill="#D6B568" transform="translate(56,70)"/>
<path d="M0 0 C0.66 0 1.32 0 2 0 C2.36544911 1.89369084 2.71689175 3.79008782 3.0625 5.6875 C3.25972656 6.74324219 3.45695312 7.79898438 3.66015625 8.88671875 C3.99034946 11.91159216 3.77474558 14.07980511 3 17 C1.68 16.67 0.36 16.34 -1 16 C-1.33 13.69 -1.66 11.38 -2 9 C-1.34 8.67 -0.68 8.34 0 8 C0 8.66 0 9.32 0 10 C0.66 10 1.32 10 2 10 C1.34 6.7 0.68 3.4 0 0 Z " fill="#D7C087" transform="translate(39,35)"/>
<path d="M0 0 C0.33 0.99 0.66 1.98 1 3 C0.04287109 3.16435547 0.04287109 3.16435547 -0.93359375 3.33203125 C-1.75988281 3.49058594 -2.58617187 3.64914063 -3.4375 3.8125 C-4.26121094 3.96332031 -5.08492187 4.11414063 -5.93359375 4.26953125 C-6.61550781 4.51058594 -7.29742188 4.75164063 -8 5 C-8.33 5.99 -8.66 6.98 -9 8 C-11.97 7.505 -11.97 7.505 -15 7 C-11.78651504 1.51817271 -6.20069612 -0.56369965 0 0 Z " fill="#D7B36C" transform="translate(29,20)"/>
<path d="M0 0 C1.32 0.33 2.64 0.66 4 1 C3.67 3.64 3.34 6.28 3 9 C2.01 9 1.02 9 0 9 C-0.66 10.32 -1.32 11.64 -2 13 C-2 11.02 -2 9.04 -2 7 C-2.99 7 -3.98 7 -5 7 C-5 6.34 -5 5.68 -5 5 C-3.35 4.34 -1.7 3.68 0 3 C0 2.01 0 1.02 0 0 Z " fill="#CDAD63" transform="translate(132,110)"/>
<path d="M0 0 C1.98 1.65 3.96 3.3 6 5 C5.67 6.32 5.34 7.64 5 9 C4.34 9 3.68 9 3 9 C1.32254318 9.63903117 -0.34561387 10.30341637 -2 11 C-2 8 -2 8 -0.4375 6.0625 C1.27412216 4.10441765 1.27412216 4.10441765 0.6875 1.75 C0.460625 1.1725 0.23375 0.595 0 0 Z " fill="#D8BE79" transform="translate(51,91)"/>
<path d="M0 0 C0.66 1.32 1.32 2.64 2 4 C0.68 5.32 -0.64 6.64 -2 8 C-2.66 7.67 -3.32 7.34 -4 7 C-4.33 7.66 -4.66 8.32 -5 9 C-7.0625 9.625 -7.0625 9.625 -9 10 C-8.06409496 8.8944811 -7.12620142 7.79064547 -6.1875 6.6875 C-5.66542969 6.07261719 -5.14335938 5.45773438 -4.60546875 4.82421875 C-3.12827531 3.14575321 -1.59960869 1.56117966 0 0 Z " fill="#CCB375" transform="translate(67,75)"/>
<path d="M0 0 C0 3.63 0 7.26 0 11 C-0.33 10.34 -0.66 9.68 -1 9 C-1.66 9 -2.32 9 -3 9 C-3.33 9.66 -3.66 10.32 -4 11 C-4.3682455 3.51234156 -4.3682455 3.51234156 -2.5625 1 C-1 0 -1 0 0 0 Z " fill="#D5B46A" transform="translate(43,86)"/>
<path d="M0 0 C3.68754757 0.49831724 5.60490662 1.10067643 8 4 C7.67 4.66 7.34 5.32 7 6 C4 4 4 4 3 2 C2.01 1.34 1.02 0.68 0 0 Z M1 4 C1.99 4.33 2.98 4.66 4 5 C3.34 5.66 2.68 6.32 2 7 C1.34 6.67 0.68 6.34 0 6 C-0.33 7.65 -0.66 9.3 -1 11 C-1.99 11.33 -2.98 11.66 -4 12 C-2.375 6.25 -2.375 6.25 1 4 Z " fill="#CBAE6C" transform="translate(35,18)"/>
<path d="M0 0 C0.99 0 1.98 0 3 0 C3 6.93 3 13.86 3 21 C2.67 21 2.34 21 2 21 C1.67 16.05 1.34 11.1 1 6 C0.67 6 0.34 6 0 6 C0 4.02 0 2.04 0 0 Z " fill="#C6A763" transform="translate(69,91)"/>
<path d="M0 0 C0.66 0 1.32 0 2 0 C0.54955729 4.10958767 -1.51110752 7.43258745 -4 11 C-5.25640898 8.48718205 -5.20872719 6.78302919 -5 4 C-4.34 3.34 -3.68 2.68 -3 2 C-2.01 2 -1.02 2 0 2 C0 1.34 0 0.68 0 0 Z " fill="#CFB781" transform="translate(47,108)"/>
<path d="M0 0 C0 3.51716303 -0.82445585 4.37121748 -3 7 C-1.68 7.33 -0.36 7.66 1 8 C1.33 10.31 1.66 12.62 2 15 C1.34 15 0.68 15 0 15 C-0.268125 14.236875 -0.53625 13.47375 -0.8125 12.6875 C-1.94424112 10.12619116 -2.91223401 8.80307062 -5 7 C-3.70700306 4.11562221 -2.34058637 2.12780579 0 0 Z " fill="#CAB26C" transform="translate(57,85)"/>
<path d="M0 0 C1.1796875 1.609375 1.1796875 1.609375 2 4 C0.8828125 7.015625 0.8828125 7.015625 -0.875 10.25 C-1.44992188 11.32765625 -2.02484375 12.4053125 -2.6171875 13.515625 C-3.30167969 14.74539062 -3.30167969 14.74539062 -4 16 C-4.66 14.68 -5.32 13.36 -6 12 C-5.01 12 -4.02 12 -3 12 C-3 10.68 -3 9.36 -3 8 C-2.34 8 -1.68 8 -1 8 C-0.67 5.36 -0.34 2.72 0 0 Z " fill="#D1B981" transform="translate(92,36)"/>
<path d="M0 0 C6.55263158 2.18421053 6.55263158 2.18421053 8.0625 4.9375 C7.98731787 7.41851016 7.27839167 8.89441372 6 11 C5.34 9.02 4.68 7.04 4 5 C2.35 4.67 0.7 4.34 -1 4 C-1.33 3.01 -1.66 2.02 -2 1 C-1.34 0.67 -0.68 0.34 0 0 Z " fill="#D7C289" transform="translate(95,28)"/>
<path d="M0 0 C0.66 0 1.32 0 2 0 C2 0.66 2 1.32 2 2 C2.66 2 3.32 2 4 2 C4.28875 2.639375 4.5775 3.27875 4.875 3.9375 C5.82823451 6.15206079 5.82823451 6.15206079 8 7 C8 7.66 8 8.32 8 9 C9.32 9.33 10.64 9.66 12 10 C11.67 10.66 11.34 11.32 11 12 C5.16507832 9.49931928 2.58121044 5.67866296 0 0 Z " fill="#CAB781" transform="translate(97,115)"/>
<path d="M0 0 C0.33 0.66 0.66 1.32 1 2 C1.66 2 2.32 2 3 2 C3 4.31 3 6.62 3 9 C2.34 9 1.68 9 1 9 C0.67 9.99 0.34 10.98 0 12 C-1.53166168 7.91556885 -0.63081652 4.20544343 0 0 Z " fill="#CCB47A" transform="translate(71,112)"/>
<path d="M0 0 C1.61220449 4.03051122 0.65681045 7.1100972 -1 11 C-4.125 12.4375 -4.125 12.4375 -7 13 C-6.36771484 11.96939453 -6.36771484 11.96939453 -5.72265625 10.91796875 C-5.17480469 10.01691406 -4.62695312 9.11585937 -4.0625 8.1875 C-3.51722656 7.29417969 -2.97195312 6.40085937 -2.41015625 5.48046875 C-0.88990422 2.99296438 -0.88990422 2.99296438 0 0 Z " fill="#BFA361" transform="translate(105,43)"/>
<path d="M0 0 C0.66 0.66 1.32 1.32 2 2 C1.625 4.125 1.625 4.125 1 6 C0.34 6 -0.32 6 -1 6 C-2.33783393 6.31478446 -3.67203709 6.64587656 -5 7 C-5.33 6.01 -5.66 5.02 -6 4 C-5.195625 3.525625 -4.39125 3.05125 -3.5625 2.5625 C-1.15246512 1.23099846 -1.15246512 1.23099846 0 0 Z " fill="#DABE80" transform="translate(69,105)"/>
<path d="M0 0 C1.65 0.33 3.3 0.66 5 1 C4.2884375 1.6496875 4.2884375 1.6496875 3.5625 2.3125 C1.76313043 4.02309613 1.76313043 4.02309613 1 7 C0.01 7.33 -0.98 7.66 -2 8 C-2 7.34 -2 6.68 -2 6 C-2.66 5.67 -3.32 5.34 -4 5 C-3.01 4.34 -2.02 3.68 -1 3 C-0.67 2.01 -0.34 1.02 0 0 Z " fill="#D3B875" transform="translate(96,21)"/>
<path d="M0 0 C0.33 2.97 0.66 5.94 1 9 C-0.32 8.67 -1.64 8.34 -3 8 C-3.6875 5.6875 -3.6875 5.6875 -4 3 C-1.72413793 0 -1.72413793 0 0 0 Z " fill="#CFB269" transform="translate(40,36)"/>
<path d="M0 0 C0.99 0.33 1.98 0.66 3 1 C3 1.99 3 2.98 3 4 C1 6 -1 8 -3 10 C-3.36629408 5.72656908 -2.40814077 3.51187196 0 0 Z " fill="#DAB96F" transform="translate(33,19)"/>
<path d="M0 0 C1.65 0.99 3.3 1.98 5 3 C4.67 6.96 4.34 10.92 4 15 C3.67 15 3.34 15 3 15 C2.86722656 14.16855469 2.73445313 13.33710937 2.59765625 12.48046875 C2.42105469 11.39378906 2.24445313 10.30710937 2.0625 9.1875 C1.88847656 8.10855469 1.71445313 7.02960937 1.53515625 5.91796875 C1.06128079 2.95066644 1.06128079 2.95066644 0 0 Z " fill="#BA9B55" transform="translate(103,28)"/>
<path d="M0 0 C0.66 0 1.32 0 2 0 C1.9071875 1.3921875 1.9071875 1.3921875 1.8125 2.8125 C1.69105736 5.98395103 1.69105736 5.98395103 3.5 7.875 C3.995 8.24625 4.49 8.6175 5 9 C4.67 9.66 4.34 10.32 4 11 C3.34 10.67 2.68 10.34 2 10 C2 9.34 2 8.68 2 8 C1.01 7.67 0.02 7.34 -1 7 C-1.04254356 5.00045254 -1.04080783 2.99958364 -1 1 C-0.67 0.67 -0.34 0.34 0 0 Z " fill="#CEBA7F" transform="translate(101,54)"/>
<path d="M0 0 C0.33 1.65 0.66 3.3 1 5 C-0.98 5.99 -0.98 5.99 -3 7 C-3.33 6.01 -3.66 5.02 -4 4 C-3.67 3.67 -3.34 3.34 -3 3 C-3.66 2.34 -4.32 1.68 -5 1 C-2 0 -2 0 0 0 Z " fill="#D8BD80" transform="translate(47,27)"/>
<path d="M0 0 C0.33 0.66 0.66 1.32 1 2 C1.66 2.33 2.32 2.66 3 3 C0.69631264 4.06652192 -1.64018187 5.06421005 -4 6 C-4.66 5.67 -5.32 5.34 -6 5 C-4.02 3.35 -2.04 1.7 0 0 Z " fill="#D3BC7C" transform="translate(97,48)"/>
<path d="M0 0 C1.5625 1.75 1.5625 1.75 3 4 C2.6875 6.25 2.6875 6.25 2 8 C1.01 7.67 0.02 7.34 -1 7 C-2 4 -2 4 -1.0625 1.8125 C-0.5365625 0.9153125 -0.5365625 0.9153125 0 0 Z " fill="#D7BB79" transform="translate(117,107)"/>
<path d="M0 0 C0.33 0.66 0.66 1.32 1 2 C1.66 2 2.32 2 3 2 C2.67 3.98 2.34 5.96 2 8 C0 7 0 7 -0.6875 5.125 C-1 3 -1 3 0 0 Z " fill="#D0AF63" transform="translate(50,36)"/>
<path d="M0 0 C1.65 0 3.3 0 5 0 C5 0.66 5 1.32 5 2 C5.99 1.67 6.98 1.34 8 1 C8 2.65 8 4.3 8 6 C6.66402348 5.19185349 5.331275 4.37836819 4 3.5625 C3.2575 3.11003906 2.515 2.65757813 1.75 2.19140625 C1.1725 1.79824219 0.595 1.40507812 0 1 C0 0.67 0 0.34 0 0 Z " fill="#CCB87F" transform="translate(26,29)"/>
<path d="M0 0 C3.16717283 1.58358642 4.73268318 2.45263699 6.3125 5.6875 C6.539375 6.450625 6.76625 7.21375 7 8 C6.01 8.495 6.01 8.495 5 9 C4.16094435 7.87926138 3.32892169 6.75325453 2.5 5.625 C2.0359375 4.99851562 1.571875 4.37203125 1.09375 3.7265625 C0 2 0 2 0 0 Z " fill="#CAB88A" transform="translate(101,23)"/>
<path d="M0 0 C0.33 0.99 0.66 1.98 1 3 C-0.25541557 5.51083114 -1.50063488 5.87125446 -4 7 C-4.33 6.01 -4.66 5.02 -5 4 C-3.35 2.68 -1.7 1.36 0 0 Z " fill="#D1B778" transform="translate(86,58)"/>
<path d="M0 0 C0.66 0.99 1.32 1.98 2 3 C1.34 4.32 0.68 5.64 0 7 C-0.66 7 -1.32 7 -2 7 C-2.125 4.625 -2.125 4.625 -2 2 C-1.34 1.34 -0.68 0.68 0 0 Z " fill="#D3B468" transform="translate(47,40)"/>
<path d="M0 0 C-2.25 2.0625 -2.25 2.0625 -5 4 C-7.3125 3.75 -7.3125 3.75 -9 3 C-9 2.34 -9 1.68 -9 1 C-5.92677456 0.08941469 -3.19902639 -0.08886184 0 0 Z " fill="#D6C994" transform="translate(15,31)"/>
<path d="M0 0 C1.875 0.125 1.875 0.125 4 1 C5.25 4.0625 5.25 4.0625 6 7 C4.35 7 2.7 7 1 7 C1.20625 6.21625 1.4125 5.4325 1.625 4.625 C1.74875 3.75875 1.8725 2.8925 2 2 C1.34 1.34 0.68 0.68 0 0 Z " fill="#D3C087" transform="translate(44,18)"/>
</svg>
